{
  "accessors": [
    {
      "bufferView": 0,
      "componentType": 5125,
      "count": 44796,
      "type": "SCALAR"
    },
    {
      "bufferView": 1,
      "componentType": 5126,
      "count": 8530,
      "max": [
        -0.06935742012643531,
        0.04253950085794156,
        0.02797091472433464
      ],
      "min": [
        -0.11324882526026925,
        -0.023779393981959385,
        -0.02797091472433464
      ],
      "type": "VEC3"
    },
    {
      "bufferView": 2,
      "componentType": 5126,
      "count": 8530,
      "max": [
        0.9996450880099045,
        0.7795210255638805,
        0.9996957577406411
      ],
      "min": [
        -0.9362913085019943,
        -0.7792712838042434,
        -0.9996957577406411
      ],
      "type": "VEC3"
    },
    {
      "bufferView": 3,
      "componentType": 5126,
      "count": 8530,
      "max": [
        0.8206682038610028,
        1.0
      ],
      "min": [
        0.0,
        0.0
      ],
      "type": "VEC2"
    },
    {
      "bufferView": 4,
      "componentType": 5125,
      "count": 44994,
      "type": "SCALAR"
    },
    {
      "bufferView": 5,
      "componentType": 5126,
      "count": 8573,
      "max": [
        0.014676269165537326,
        0.17834560091813778,
        0.022319990517639887
      ],
      "min": [
        -0.02231699162849088,
        0.13867367811068354,
        -0.022319990517639884
      ],
      "type": "VEC3"
    },
    {
      "bufferView": 6,
      "componentType": 5126,
      "count": 8573,
      "max": [
        0.8886721236906813,
        0.9454267107686798,
        0.9999180971721412
      ],
      "min": [
        -0.9369834323173097,
        -0.9451371545812666,
        -0.9999180971721412
      ],
      "type": "VEC3"
    },
    {
      "bufferView": 7,
      "componentType": 5126,
      "count": 8573,
      "max": [
        0.8181259198985676,
        1.0
      ],
      "min": [
        0.0,
        0.0
      ],
      "type": "VEC2"
    },
    {
      "bufferView": 8,
      "componentType": 5125,
      "count": 44904,
      "type": "SCALAR"
    },
    {
      "bufferView": 9,
      "componentType": 5126,
      "count": 8546,
      "max": [
        0.027163280571246284,
        -0.1384571254352256,
        0.022295205483859055
      ],
      "min": [
        -0.009782421635051497,
        -0.1783518510084774,
        -0.02229520548385907
      ],
      "type": "VEC3"
    },
    {
      "bufferView": 10,
      "componentType": 5126,
      "count": 8546,
      "max": [
        0.9377966298352243,
        0.906791960991186,
        0.999873603128789
      ],
      "min": [
        -0.9479389743339054,
        -0.8872559824928348,
        -0.999873603128789
      ],
      "type": "VEC3"
    },
    {
      "bufferView": 11,
      "componentType": 5126,
      "count": 8546,
      "max": [
        0.8052204550727701,
        1.0
      ],
      "min": [
        0.0,
        0.0
      ],
      "type": "VEC2"
    },
    {
      "bufferView": 12,
      "componentType": 5125,
      "count": 47628,
      "type": "SCALAR"
    },
    {
      "bufferView": 13,
      "componentType": 5126,
      "count": 9290,
      "max": [
        0.11324882526026925,
        0.09039687271338304,
        0.028610368594224923
      ],
      "min": [
        0.06781347485348421,
        -0.05127753783609246,
        -0.028610368594224934
      ],
      "type": "VEC3"
    },
    {
      "bufferView": 14,
      "componentType": 5126,
      "count": 9290,
      "max": [
        0.9999986004741179,
        0.8352807762726128,
        0.9999384674609976
      ],
      "min": [
        -0.9999989134960259,
        -0.887894681901082,
        -0.9999384674609976
      ],
      "type": "VEC3"
    },
    {
      "bufferView": 15,
      "componentType": 5126,
      "count": 9290,
      "max": [
        1.0,
        0.9966623896534071
      ],
      "min": [
        0.0,
        0.0
      ],
      "type": "VEC2"
    },
    {
      "bufferView": 16,
      "componentType": 5125,
      "count": 64740,
      "type": "SCALAR"
    },
    {
      "bufferView": 17,
      "componentType": 5126,
      "count": 14006,
      "max": [
        0.1104992160147602,
        0.1783518510084774,
        0.036812794733721316
      ],
      "min": [
        -0.09574947963555802,
        -0.1705694102979486,
        -0.036812794733721316
      ],
      "type": "VEC3"
    },
    {
      "bufferView": 18,
      "componentType": 5126,
      "count": 14006,
      "max": [
        0.9999999574902941,
        0.9999999590580432,
        0.9998584265769128
      ],
      "min": [
        -0.9999999912848438,
        -0.9999983378929627,
        -0.9998584265769128
      ],
      "type": "VEC3"
    },
    {
      "bufferView": 19,
      "componentType": 5126,
      "count": 14006,
      "max": [
        0.988897219094564,
        1.0
      ],
      "min": [
        0.0,
        0.0
      ],
      "type": "VEC2"
    }
  ],
  "asset": {
    "generator": "Adobe Illustrator",
    "version": "2.0"
  },
  "bufferViews": [
    {
      "buffer": 0,
      "byteLength": 179184,
      "target": 34963
    },
    {
      "buffer": 0,
      "byteLength": 102360,
      "byteOffset": 179184,
      "target": 34962
    },
    {
      "buffer": 0,
      "byteLength": 102360,
      "byteOffset": 281544,
      "target": 34962
    },
    {
      "buffer": 0,
      "byteLength": 68240,
      "byteOffset": 383904,
      "target": 34962
    },
    {
      "buffer": 0,
      "byteLength": 179976,
      "byteOffset": 452144,
      "target": 34963
    },
    {
      "buffer": 0,
      "byteLength": 102876,
      "byteOffset": 632120,
      "target": 34962
    },
    {
      "buffer": 0,
      "byteLength": 102876,
      "byteOffset": 734996,
      "target": 34962
    },
    {
      "buffer": 0,
      "byteLength": 68584,
      "byteOffset": 837872,
      "target": 34962
    },
    {
      "buffer": 0,
      "byteLength": 179616,
      "byteOffset": 906456,
      "target": 34963
    },
    {
      "buffer": 0,
      "byteLength": 102552,
      "byteOffset": 1086072,
      "target": 34962
    },
    {
      "buffer": 0,
      "byteLength": 102552,
      "byteOffset": 1188624,
      "target": 34962
    },
    {
      "buffer": 0,
      "byteLength": 68368,
      "byteOffset": 1291176,
      "target": 34962
    },
    {
      "buffer": 0,
      "byteLength": 190512,
      "byteOffset": 1359544,
      "target": 34963
    },
    {
      "buffer": 0,
      "byteLength": 111480,
      "byteOffset": 1550056,
      "target": 34962
    },
    {
      "buffer": 0,
      "byteLength": 111480,
      "byteOffset": 1661536,
      "target": 34962
    },
    {
      "buffer": 0,
      "byteLength": 74320,
      "byteOffset": 1773016,
      "target": 34962
    },
    {
      "buffer": 0,
      "byteLength": 258960,
      "byteOffset": 1847336,
      "target": 34963
    },
    {
      "buffer": 0,
      "byteLength": 168072,
      "byteOffset": 2106296,
      "target": 34962
    },
    {
      "buffer": 0,
      "byteLength": 168072,
      "byteOffset": 2274368,
      "target": 34962
    },
    {
      "buffer": 0,
      "byteLength": 112048,
      "byteOffset": 2442440,
      "target": 34962
    }
  ],
  "buffers": [
    {
      "byteLength": 2554488,
      "uri": "data:application/octet-stream;base64,"
    }
  ],
  "materials": [
    {
      "doubleSided": true,
      "pbrMetallicRoughness": {
        "baseColorFactor": [
          0.875,
          0.1054687574505806,
          0.1210937574505806,
          1.0
        ],
        "metallicFactor": 0.0,
        "roughnessFactor": 0.4000000059604645
      }
    },
    {
      "doubleSided": true,
      "pbrMetallicRoughness": {
        "baseColorFactor": [
          0.875,
          0.1054687574505806,
          0.1210937574505806,
          1.0
        ],
        "metallicFactor": 0.0,
        "roughnessFactor": 0.4000000059604645
      }
    },
    {
      "doubleSided": true,
      "pbrMetallicRoughness": {
        "baseColorFactor": [
          0.875,
          0.1054687574505806,
          0.1210937574505806,
          1.0
        ],
        "metallicFactor": 0.0,
        "roughnessFactor": 0.4000000059604645
      }
    },
    {
      "doubleSided": true,
      "pbrMetallicRoughness": {
        "baseColorFactor": [
          0.875,
          0.1054687574505806,
          0.1210937574505806,
          1.0
        ],
        "metallicFactor": 0.0,
        "roughnessFactor": 0.4000000059604645
      }
    },
    {
      "doubleSided": true,
      "pbrMetallicRoughness": {
        "baseColorFactor": [
          0.875,
          0.1054687574505806,
          0.1210937574505806,
          1.0
        ],
        "metallicFactor": 0.0,
        "roughnessFactor": 0.4000000059604645
      }
    }
  ],
  "meshes": [
    {
      "primitives": [
        {
          "attributes": {
            "NORMAL": 2,
            "POSITION": 1,
            "TEXCOORD_0": 3
          },
          "indices": 0,
          "material": 0,
          "mode": 4
        }
      ]
    },
    {
      "primitives": [
        {
          "attributes": {
            "NORMAL": 6,
            "POSITION": 5,
            "TEXCOORD_0": 7
          },
          "indices": 4,
          "material": 1,
          "mode": 4
        }
      ]
    },
    {
      "primitives": [
        {
          "attributes": {
            "NORMAL": 10,
            "POSITION": 9,
            "TEXCOORD_0": 11
          },
          "indices": 8,
          "material": 2,
          "mode": 4
        }
      ]
    },
    {
      "primitives": [
        {
          "attributes": {
            "NORMAL": 14,
            "POSITION": 13,
            "TEXCOORD_0": 15
          },
          "indices": 12,
          "material": 3,
          "mode": 4
        }
      ]
    },
    {
      "primitives": [
        {
          "attributes": {
            "NORMAL": 18,
            "POSITION": 17,
            "TEXCOORD_0": 19
          },
          "indices": 16,
          "material": 4,
          "mode": 4
        }
      ]
    }
  ],
  "nodes": [
    {
      "mesh": 0
    },
    {
      "mesh": 1
    },
    {
      "mesh": 2
    },
    {
      "mesh": 3
    },
    {
      "mesh": 4
    }
  ],
  "scenes": [
    {
      "nodes": [
        0,
        1,
        2,
        3,
        4
      ]
    }
  ]
}
