{
  "accessors": [
    {
      "bufferView": 0,
      "componentType": 5125,
      "count": 50214,
      "type": "SCALAR"
    },
    {
      "bufferView": 1,
      "componentType": 5126,
      "count": 9978,
      "max": [
        0.10257594719393515,
        0.17641931262309252,
        0.026512181750280216
      ],
      "min": [
        -0.10758741910571534,
        -0.04882751070375635,
        -0.03268442384201294
      ],
      "type": "VEC3"
    },
    {
      "bufferView": 2,
      "componentType": 5126,
      "count": 9978,
      "max": [
        0.9999925410295761,
        0.9999994967109584,
        0.999954845537902
      ],
      "min": [
        -0.9999997737769025,
        -0.9999962081480354,
        -1.0
      ],
      "type": "VEC3"
    },
    {
      "bufferView": 3,
      "componentType": 5126,
      "count": 9978,
      "max": [
        1.0,
        0.7420171643660343
      ],
      "min": [
        0.0,
        0.0
      ],
      "type": "VEC2"
    },
    {
      "bufferView": 4,
      "componentType": 5125,
      "count": 50340,
      "type": "SCALAR"
    },
    {
      "bufferView": 5,
      "componentType": 5126,
      "count": 10056,
      "max": [
        0.18453832260616432,
        0.08468938037860063,
        0.02446298113644768
      ],
      "min": [
        -0.020537121119926116,
        -0.17305465177066304,
        -0.03268442384201294
      ],
      "type": "VEC3"
    },
    {
      "bufferView": 6,
      "componentType": 5126,
      "count": 10056,
      "max": [
        0.9999999500970275,
        0.9999997817902864,
        0.9999615807168947
      ],
      "min": [
        -0.9999940828662249,
        -0.99999476015821,
        -1.0
      ],
      "type": "VEC3"
    },
    {
      "bufferView": 7,
      "componentType": 5126,
      "count": 10056,
      "max": [
        1.0,
        0.8890937317638314
      ],
      "min": [
        0.0,
        0.0
      ],
      "type": "VEC2"
    },
    {
      "bufferView": 8,
      "componentType": 5125,
      "count": 48492,
      "type": "SCALAR"
    },
    {
      "bufferView": 9,
      "componentType": 5126,
      "count": 9542,
      "max": [
        0.07138735043242894,
        0.029045434166550588,
        0.03268442384201294
      ],
      "min": [
        -0.18453832260616454,
        -0.17641931262309274,
        -0.03268442384201294
      ],
      "type": "VEC3"
    },
    {
      "bufferView": 10,
      "componentType": 5126,
      "count": 9542,
      "max": [
        0.9999999963855166,
        0.9999995268888512,
        0.9999694303030143
      ],
      "min": [
        -0.9999982115725856,
        -0.9999926149186408,
        -1.0
      ],
      "type": "VEC3"
    },
    {
      "bufferView": 11,
      "componentType": 5126,
      "count": 9542,
      "max": [
        1.0,
        0.908661550907737
      ],
      "min": [
        0.0,
        0.0
      ],
      "type": "VEC2"
    }
  ],
  "asset": {
    "generator": "Adobe Illustrator",
    "version": "2.0"
  },
  "bufferViews": [
    {
      "buffer": 0,
      "byteLength": 200856,
      "target": 34963
    },
    {
      "buffer": 0,
      "byteLength": 119736,
      "byteOffset": 200856,
      "target": 34962
    },
    {
      "buffer": 0,
      "byteLength": 119736,
      "byteOffset": 320592,
      "target": 34962
    },
    {
      "buffer": 0,
      "byteLength": 79824,
      "byteOffset": 440328,
      "target": 34962
    },
    {
      "buffer": 0,
      "byteLength": 201360,
      "byteOffset": 520152,
      "target": 34963
    },
    {
      "buffer": 0,
      "byteLength": 120672,
      "byteOffset": 721512,
      "target": 34962
    },
    {
      "buffer": 0,
      "byteLength": 120672,
      "byteOffset": 842184,
      "target": 34962
    },
    {
      "buffer": 0,
      "byteLength": 80448,
      "byteOffset": 962856,
      "target": 34962
    },
    {
      "buffer": 0,
      "byteLength": 193968,
      "byteOffset": 1043304,
      "target": 34963
    },
    {
      "buffer": 0,
      "byteLength": 114504,
      "byteOffset": 1237272,
      "target": 34962
    },
    {
      "buffer": 0,
      "byteLength": 114504,
      "byteOffset": 1351776,
      "target": 34962
    },
    {
      "buffer": 0,
      "byteLength": 76336,
      "byteOffset": 1466280,
      "target": 34962
    }
  ],
  "buffers": [
    {
      "byteLength": 1542616,
      "uri": "data:application/octet-stream;base64,"
    }
  ],
  "materials": [
    {
      "doubleSided": true,
      "pbrMetallicRoughness": {
        "baseColorFactor": [
          0.875,
          0.1054687574505806,
          0.1210937574505806,
          1.0
        ],
        "metallicFactor": 0.0,
        "roughnessFactor": 0.4000000059604645
      }
    },
    {
      "doubleSided": true,
      "pbrMetallicRoughness": {
        "baseColorFactor": [
          0.875,
          0.1054687574505806,
          0.1210937574505806,
          1.0
        ],
        "metallicFactor": 0.0,
        "roughnessFactor": 0.4000000059604645
      }
    },
    {
      "doubleSided": true,
      "pbrMetallicRoughness": {
        "baseColorFactor": [
          0.875,
          0.1054687574505806,
          0.1210937574505806,
          1.0
        ],
        "metallicFactor": 0.0,
        "roughnessFactor": 0.4000000059604645
      }
    }
  ],
  "meshes": [
    {
      "primitives": [
        {
          "attributes": {
            "NORMAL": 2,
            "POSITION": 1,
            "TEXCOORD_0": 3
          },
          "indices": 0,
          "material": 0,
          "mode": 4
        }
      ]
    },
    {
      "primitives": [
        {
          "attributes": {
            "NORMAL": 6,
            "POSITION": 5,
            "TEXCOORD_0": 7
          },
          "indices": 4,
          "material": 1,
          "mode": 4
        }
      ]
    },
    {
      "primitives": [
        {
          "attributes": {
            "NORMAL": 10,
            "POSITION": 9,
            "TEXCOORD_0": 11
          },
          "indices": 8,
          "material": 2,
          "mode": 4
        }
      ]
    }
  ],
  "nodes": [
    {
      "mesh": 0
    },
    {
      "mesh": 1
    },
    {
      "mesh": 2
    }
  ],
  "scenes": [
    {
      "nodes": [
        0,
        1,
        2
      ]
    }
  ]
}
